<svg width="202" height="213" viewBox="0 0 202 213" fill="none" xmlns="http://www.w3.org/2000/svg">
<path d="M106.05 213C101.842 213 98.2663 211.563 95.3238 208.689C92.3813 205.815 90.9067 202.265 90.9 198.039C90.9 196.011 91.2804 194.067 92.0413 192.207C92.8022 190.348 93.9367 188.742 95.445 187.389L102.515 180.796C103.525 179.951 104.703 179.529 106.05 179.529C107.397 179.529 108.575 179.951 109.585 180.796L116.655 187.389C118.17 188.742 119.305 190.348 120.059 192.207C120.813 194.067 121.193 196.011 121.2 198.039C121.2 202.265 119.729 205.815 116.786 208.689C113.844 211.563 110.265 213 106.05 213ZM65.9025 192.461C64.3875 190.939 63.63 189.164 63.63 187.136C63.63 185.107 64.3875 183.332 65.9025 181.811L85.0925 162.539C86.6075 161.018 88.375 160.257 90.395 160.257C92.415 160.257 94.1825 161.018 95.6975 162.539C97.2125 164.061 97.97 165.836 97.97 167.864C97.97 169.893 97.2125 171.668 95.6975 173.189L76.5075 192.461C74.9925 193.982 73.225 194.743 71.205 194.743C69.185 194.743 67.4175 193.982 65.9025 192.461ZM132.815 179.021L124.735 170.907C123.725 169.893 123.22 168.71 123.22 167.357C123.22 166.005 123.725 164.821 124.735 163.807L132.815 155.693C133.825 154.679 135.003 154.171 136.35 154.171C137.697 154.171 138.875 154.679 139.885 155.693L147.965 163.807C148.975 164.821 149.48 166.005 149.48 167.357C149.48 168.71 148.975 169.893 147.965 170.907L139.885 179.021C138.875 180.036 137.697 180.543 136.35 180.543C135.003 180.543 133.825 180.036 132.815 179.021ZM57.065 170.907L48.985 179.021C47.975 180.036 46.7967 180.543 45.45 180.543C44.1033 180.543 42.925 180.036 41.915 179.021L33.835 170.907C32.825 169.893 32.32 168.71 32.32 167.357C32.32 166.005 32.825 164.821 33.835 163.807L41.915 155.693C42.925 154.679 44.1033 154.171 45.45 154.171C46.7967 154.171 47.975 154.679 48.985 155.693L57.065 163.807C58.075 164.821 58.58 166.005 58.58 167.357C58.58 168.71 58.075 169.893 57.065 170.907ZM55.55 142C40.2317 142 27.1421 136.55 16.2812 125.65C5.42034 114.75 -0.00672708 101.604 6.25775e-06 86.2143C6.25775e-06 72.1833 4.62917 59.9274 13.8875 49.4464C23.1458 38.9655 34.5925 32.7952 48.2275 30.9357C53.6142 21.3 60.9804 13.7334 70.3263 8.23601C79.6722 2.73858 89.8967 -0.00674944 101 1.24605e-05C116.15 1.24605e-05 129.324 4.86182 140.521 14.5854C151.719 24.3091 158.493 36.4365 160.843 50.9679C172.458 51.9822 182.221 56.8 190.133 65.4214C198.044 74.0429 202 84.3548 202 96.3571C202 109.036 197.583 119.814 188.749 128.693C179.915 137.571 169.182 142.007 156.55 142H55.55Z" fill="#202020"/>
</svg>
